<?xml version="1.0" standalone="no"?><!-- Generator: Gravit.io --><svg xmlns="http://www.w3.org/2000/svg" xmlns:xlink="http://www.w3.org/1999/xlink" style="isolation:isolate" viewBox="0 0 390 330" width="390" height="330"><defs><clipPath id="_clipPath_WxKMOvfbvifrSHb3yMPYTc7si0DcPQSB"><rect width="390" height="330"/></clipPath></defs><g clip-path="url(#_clipPath_WxKMOvfbvifrSHb3yMPYTc7si0DcPQSB)"><g id="Group"><path d=" M 55 220 L 25 220 L 25 180 L 45.4 180 L 55 189.697 L 55 220 Z " fill="rgb(66,165,245)"/><path d=" M 53.2 190.909 L 44.2 190.909 L 44.2 181.818 L 53.2 190.909 Z " fill="rgb(225,245,254)"/><path d=" M 31 195.758 L 50.2 195.758 L 50.2 198.182 L 31 198.182 L 31 195.758 Z  M 31 200.606 L 45.4 200.606 L 45.4 203.03 L 31 203.03 L 31 200.606 Z  M 31 205.455 L 50.2 205.455 L 50.2 207.879 L 31 207.879 L 31 205.455 Z  M 31 210.303 L 45.4 210.303 L 45.4 212.727 L 31 212.727 L 31 210.303 Z " fill="rgb(21,101,192)"/></g><g id="Group"><path d=" M 127.182 220 L 97.182 220 L 97.182 180 L 117.582 180 L 127.182 189.697 L 127.182 220 Z " fill="rgb(66,165,245)"/><path d=" M 125.382 190.909 L 116.382 190.909 L 116.382 181.818 L 125.382 190.909 Z " fill="rgb(225,245,254)"/><path d=" M 103.182 195.758 L 122.382 195.758 L 122.382 198.182 L 103.182 198.182 L 103.182 195.758 Z  M 103.182 200.606 L 117.582 200.606 L 117.582 203.03 L 103.182 203.03 L 103.182 200.606 Z  M 103.182 205.455 L 122.382 205.455 L 122.382 207.879 L 103.182 207.879 L 103.182 205.455 Z  M 103.182 210.303 L 117.582 210.303 L 117.582 212.727 L 103.182 212.727 L 103.182 210.303 Z " fill="rgb(21,101,192)"/></g><g id="Group"><path d=" M 211.091 130 L 181.091 130 L 181.091 90 L 201.491 90 L 211.091 99.697 L 211.091 130 Z " fill="rgb(66,165,245)"/><path d=" M 209.291 100.909 L 200.291 100.909 L 200.291 91.818 L 209.291 100.909 Z " fill="rgb(225,245,254)"/><path d=" M 187.091 105.758 L 206.291 105.758 L 206.291 108.182 L 187.091 108.182 L 187.091 105.758 Z  M 187.091 110.606 L 201.491 110.606 L 201.491 113.03 L 187.091 113.03 L 187.091 110.606 Z  M 187.091 115.455 L 206.291 115.455 L 206.291 117.879 L 187.091 117.879 L 187.091 115.455 Z  M 187.091 120.303 L 201.491 120.303 L 201.491 122.727 L 187.091 122.727 L 187.091 120.303 Z " fill="rgb(21,101,192)"/></g><g id="Group"><path d=" M 365 220 L 335 220 L 335 180 L 355.4 180 L 365 189.697 L 365 220 Z " fill="rgb(66,165,245)"/><path d=" M 363.2 190.909 L 354.2 190.909 L 354.2 181.818 L 363.2 190.909 Z " fill="rgb(225,245,254)"/><path d=" M 341 195.758 L 360.2 195.758 L 360.2 198.182 L 341 198.182 L 341 195.758 Z  M 341 200.606 L 355.4 200.606 L 355.4 203.03 L 341 203.03 L 341 200.606 Z  M 341 205.455 L 360.2 205.455 L 360.2 207.879 L 341 207.879 L 341 205.455 Z  M 341 210.303 L 355.4 210.303 L 355.4 212.727 L 341 212.727 L 341 210.303 Z " fill="rgb(21,101,192)"/></g><g id="Group"><path d=" M 325 310 L 295 310 L 295 270 L 315.4 270 L 325 279.697 L 325 310 Z " fill="rgb(66,165,245)"/><path d=" M 323.2 280.909 L 314.2 280.909 L 314.2 271.818 L 323.2 280.909 Z " fill="rgb(225,245,254)"/><path d=" M 301 285.758 L 320.2 285.758 L 320.2 288.182 L 301 288.182 L 301 285.758 Z  M 301 290.606 L 315.4 290.606 L 315.4 293.03 L 301 293.03 L 301 290.606 Z  M 301 295.455 L 320.2 295.455 L 320.2 297.879 L 301 297.879 L 301 295.455 Z  M 301 300.303 L 315.4 300.303 L 315.4 302.727 L 301 302.727 L 301 300.303 Z " fill="rgb(21,101,192)"/></g><g id="Group"><path d=" M 255 310 L 225 310 L 225 270 L 245.4 270 L 255 279.697 L 255 310 Z " fill="rgb(66,165,245)"/><path d=" M 253.2 280.909 L 244.2 280.909 L 244.2 271.818 L 253.2 280.909 Z " fill="rgb(225,245,254)"/><path d=" M 231 285.758 L 250.2 285.758 L 250.2 288.182 L 231 288.182 L 231 285.758 Z  M 231 290.606 L 245.4 290.606 L 245.4 293.03 L 231 293.03 L 231 290.606 Z  M 231 295.455 L 250.2 295.455 L 250.2 297.879 L 231 297.879 L 231 295.455 Z  M 231 300.303 L 245.4 300.303 L 245.4 302.727 L 231 302.727 L 231 300.303 Z " fill="rgb(21,101,192)"/></g><g id="Group"><path d=" M 209 4 L 193 4 L 189 0 L 179 0 C 176.8 0 175 1.8 175 4 L 175 28 C 175 30.2 176.8 32 179 32 L 210 32 C 211.7 32 213 30.7 213 29 L 213 8 C 213 5.8 211.2 4 209 4 Z " fill="rgb(255,160,0)"/><path d=" M 213.2 10 L 186.3 10 C 184.398 10 182.7 11.398 182.398 13.3 L 179 32 L 210.7 32 C 212.602 32 214.3 30.602 214.602 28.7 L 217.102 14.7 C 217.602 12.3 215.699 10 213.199 10 L 213.2 10 Z " fill="rgb(255,202,40)"/></g><g id="Group"><path d=" M 89 94 L 73 94 L 69 90 L 59 90 C 56.8 90 55 91.8 55 94 L 55 118 C 55 120.2 56.8 122 59 122 L 90 122 C 91.7 122 93 120.7 93 119 L 93 98 C 93 95.8 91.2 94 89 94 Z " fill="rgb(255,160,0)"/><path d=" M 93.2 100 L 66.3 100 C 64.398 100 62.7 101.398 62.398 103.3 L 59 122 L 90.7 122 C 92.602 122 94.3 120.602 94.602 118.7 L 97.102 104.7 C 97.602 102.3 95.699 100 93.199 100 L 93.2 100 Z " fill="rgb(255,202,40)"/></g><g id="Group"><path d=" M 329 94 L 313 94 L 309 90 L 299 90 C 296.8 90 295 91.8 295 94 L 295 118 C 295 120.2 296.8 122 299 122 L 330 122 C 331.7 122 333 120.7 333 119 L 333 98 C 333 95.8 331.2 94 329 94 Z " fill="rgb(255,160,0)"/><path d=" M 333.2 100 L 306.3 100 C 304.398 100 302.7 101.398 302.398 103.3 L 299 122 L 330.7 122 C 332.602 122 334.3 120.602 334.602 118.7 L 337.102 104.7 C 337.602 102.3 335.699 100 333.199 100 L 333.2 100 Z " fill="rgb(255,202,40)"/></g><g id="Group"><path d=" M 289 184 L 273 184 L 269 180 L 259 180 C 256.8 180 255 181.8 255 184 L 255 208 C 255 210.2 256.8 212 259 212 L 290 212 C 291.7 212 293 210.7 293 209 L 293 188 C 293 185.8 291.2 184 289 184 Z " fill="rgb(255,160,0)"/><path d=" M 293.2 190 L 266.3 190 C 264.398 190 262.7 191.398 262.398 193.3 L 259 212 L 290.7 212 C 292.602 212 294.3 210.602 294.602 208.7 L 297.102 194.7 C 297.602 192.3 295.699 190 293.199 190 L 293.2 190 Z " fill="rgb(255,202,40)"/></g><g transform="matrix(1,0,0,1,155,40)"><text transform="matrix(1,0,0,1,0.085,12.826)" style="font-family:&quot;Open Sans&quot;;font-weight:400;font-size:12px;font-style:normal;fill:#000000;stroke:none;">compress_me</text></g><g transform="matrix(1,0,0,1,36.091,130)"><text transform="matrix(1,0,0,1,30.419,12.826)" style="font-family:&quot;Open Sans&quot;;font-weight:400;font-size:12px;font-style:normal;fill:#000000;stroke:none;">css</text></g><g transform="matrix(1,0,0,1,156.091,130)"><text transform="matrix(1,0,0,1,9.117,12.826)" style="font-family:&quot;Open Sans&quot;;font-weight:400;font-size:12px;font-style:normal;fill:#000000;stroke:none;">index.html</text></g><g transform="matrix(1,0,0,1,275,130)"><text transform="matrix(1,0,0,1,12.322,12.826)" style="font-family:&quot;Open Sans&quot;;font-weight:400;font-size:12px;font-style:normal;fill:#000000;stroke:none;">javascript</text></g><g transform="matrix(1,0,0,1,0,220)"><text transform="matrix(1,0,0,1,9.023,12.826)" style="font-family:&quot;Open Sans&quot;;font-weight:400;font-size:12px;font-style:normal;fill:#000000;stroke:none;">garden.css</text></g><g transform="matrix(1,0,0,1,72.182,220)"><text transform="matrix(1,0,0,1,19.787,12.826)" style="font-family:&quot;Open Sans&quot;;font-weight:400;font-size:12px;font-style:normal;fill:#000000;stroke:none;">sky.css</text></g><g transform="matrix(1,0,0,1,235,220)"><text transform="matrix(1,0,0,1,32.288,12.826)" style="font-family:&quot;Open Sans&quot;;font-weight:400;font-size:12px;font-style:normal;fill:#000000;stroke:none;">lib</text></g><g transform="matrix(1,0,0,1,310,220)"><text transform="matrix(1,0,0,1,18.905,12.826)" style="font-family:&quot;Open Sans&quot;;font-weight:400;font-size:12px;font-style:normal;fill:#000000;stroke:none;">main.js</text></g><g transform="matrix(1,0,0,1,200,310)"><text transform="matrix(1,0,0,1,18.428,12.826)" style="font-family:&quot;Open Sans&quot;;font-weight:400;font-size:12px;font-style:normal;fill:#000000;stroke:none;">array.js</text></g><g transform="matrix(1,0,0,1,270,310)"><text transform="matrix(1,0,0,1,17.106,12.826)" style="font-family:&quot;Open Sans&quot;;font-weight:400;font-size:12px;font-style:normal;fill:#000000;stroke:none;">string.js</text></g><line x1="195" y1="70" x2="75.903" y2="69.871" vector-effect="non-scaling-stroke" stroke-width="1" stroke="rgb(0,0,0)" stroke-linejoin="miter" stroke-linecap="square" stroke-miterlimit="3"/><line x1="314.92" y1="69.619" x2="195" y2="70" vector-effect="non-scaling-stroke" stroke-width="1" stroke="rgb(0,0,0)" stroke-linejoin="miter" stroke-linecap="square" stroke-miterlimit="3"/><line x1="195" y1="60" x2="195" y2="70" vector-effect="non-scaling-stroke" stroke-width="1" stroke="rgb(0,0,0)" stroke-linejoin="miter" stroke-linecap="square" stroke-miterlimit="3"/><line x1="76.091" y1="70" x2="76.091" y2="80" vector-effect="non-scaling-stroke" stroke-width="1" stroke="rgb(0,0,0)" stroke-linejoin="miter" stroke-linecap="square" stroke-miterlimit="3"/><line x1="315" y1="70" x2="315" y2="80" vector-effect="non-scaling-stroke" stroke-width="1" stroke="rgb(0,0,0)" stroke-linejoin="miter" stroke-linecap="square" stroke-miterlimit="3"/><line x1="76.091" y1="150" x2="76.091" y2="160" vector-effect="non-scaling-stroke" stroke-width="1" stroke="rgb(0,0,0)" stroke-linejoin="miter" stroke-linecap="square" stroke-miterlimit="3"/><line x1="276.091" y1="240" x2="276.091" y2="250" vector-effect="non-scaling-stroke" stroke-width="1" stroke="rgb(0,0,0)" stroke-linejoin="miter" stroke-linecap="square" stroke-miterlimit="3"/><line x1="316.091" y1="150" x2="316.091" y2="160" vector-effect="non-scaling-stroke" stroke-width="1" stroke="rgb(0,0,0)" stroke-linejoin="miter" stroke-linecap="square" stroke-miterlimit="3"/><line x1="40" y1="160" x2="110" y2="160" vector-effect="non-scaling-stroke" stroke-width="1" stroke="rgb(0,0,0)" stroke-linejoin="miter" stroke-linecap="square" stroke-miterlimit="3"/><line x1="240" y1="250" x2="310" y2="250" vector-effect="non-scaling-stroke" stroke-width="1" stroke="rgb(0,0,0)" stroke-linejoin="miter" stroke-linecap="square" stroke-miterlimit="3"/><line x1="280" y1="160" x2="350" y2="160" vector-effect="non-scaling-stroke" stroke-width="1" stroke="rgb(0,0,0)" stroke-linejoin="miter" stroke-linecap="square" stroke-miterlimit="3"/><line x1="40" y1="160" x2="40" y2="170" vector-effect="non-scaling-stroke" stroke-width="1" stroke="rgb(0,0,0)" stroke-linejoin="miter" stroke-linecap="square" stroke-miterlimit="3"/><line x1="240" y1="250" x2="240" y2="260" vector-effect="non-scaling-stroke" stroke-width="1" stroke="rgb(0,0,0)" stroke-linejoin="miter" stroke-linecap="square" stroke-miterlimit="3"/><line x1="280" y1="160" x2="280" y2="170" vector-effect="non-scaling-stroke" stroke-width="1" stroke="rgb(0,0,0)" stroke-linejoin="miter" stroke-linecap="square" stroke-miterlimit="3"/><line x1="110" y1="160" x2="110" y2="170" vector-effect="non-scaling-stroke" stroke-width="1" stroke="rgb(0,0,0)" stroke-linejoin="miter" stroke-linecap="square" stroke-miterlimit="3"/><line x1="310" y1="250" x2="310" y2="260" vector-effect="non-scaling-stroke" stroke-width="1" stroke="rgb(0,0,0)" stroke-linejoin="miter" stroke-linecap="square" stroke-miterlimit="3"/><line x1="350" y1="160" x2="350" y2="170" vector-effect="non-scaling-stroke" stroke-width="1" stroke="rgb(0,0,0)" stroke-linejoin="miter" stroke-linecap="square" stroke-miterlimit="3"/></g></svg>